<svg width="20" height="20" viewBox="0 0 20 20" fill="none" xmlns="http://www.w3.org/2000/svg">
<path fill-rule="evenodd" clip-rule="evenodd" d="M5.21983 8.22015C5.36045 8.0797 5.55108 8.00081 5.74983 8.00081C5.94858 8.00081 6.1392 8.0797 6.27983 8.22015L9.99983 11.9402L13.7198 8.22015C13.7885 8.14647 13.8713 8.08736 13.9633 8.04637C14.0553 8.00538 14.1546 7.98334 14.2553 7.98156C14.356 7.97979 14.456 7.99831 14.5494 8.03603C14.6428 8.07375 14.7276 8.1299 14.7989 8.20112C14.8701 8.27233 14.9262 8.35717 14.964 8.45056C15.0017 8.54394 15.0202 8.64397 15.0184 8.74468C15.0166 8.84538 14.9946 8.94469 14.9536 9.03669C14.9126 9.12869 14.8535 9.21149 14.7798 9.28015L10.5298 13.5302C10.3892 13.6706 10.1986 13.7495 9.99983 13.7495C9.80108 13.7495 9.61045 13.6706 9.46983 13.5302L5.21983 9.28015C5.07938 9.13953 5.00049 8.9489 5.00049 8.75015C5.00049 8.5514 5.07938 8.36078 5.21983 8.22015Z" fill="#9E9E9E"/>
</svg>
