<svg width="48" height="48" viewBox="0 0 48 48" fill="none" xmlns="http://www.w3.org/2000/svg">
<path d="M13.3434 25.0052C14.3504 25.4132 15.5919 25.4653 16.3602 24.697L24.6943 16.3629C25.4626 15.5946 25.4105 14.3531 25.0025 13.3461C24.2819 11.5751 24.6466 9.46551 26.0833 8.02874C28.0019 6.11015 31.1098 6.11015 33.0284 8.02874C34.348 9.34831 34.7604 11.2365 34.2612 12.9077C34.1874 13.1464 34.2395 13.4069 34.4175 13.5848C34.5954 13.7628 34.8559 13.8149 35.0946 13.7411C36.7658 13.2419 38.654 13.6543 39.9736 14.9739C41.8921 16.8924 41.8921 20.0004 39.9736 21.919C38.5368 23.3557 36.4272 23.7204 34.6562 22.9998C33.6492 22.5918 32.4077 22.5397 31.6394 23.308L23.3053 31.6421C22.537 32.4104 22.5891 33.6519 22.9971 34.6589C23.7176 36.4299 23.353 38.5395 21.9163 39.9763C19.9977 41.8949 16.8897 41.8949 14.9711 39.9763C13.6516 38.6567 13.2392 36.7685 13.7384 35.0973C13.8122 34.8586 13.7601 34.5981 13.5821 34.4202C13.4041 34.2422 13.1437 34.1901 12.905 34.2639C11.2338 34.7631 9.3456 34.3507 8.02602 33.0312C6.10744 31.1126 6.10744 28.0046 8.02602 26.086C9.46279 24.6493 11.5724 24.2846 13.3434 25.0052Z" fill="#A9BD7E"/>
<path d="M7 11.4995C9.55556 11.3584 12.2923 8.73771 12.4986 6C12.6489 7.45195 13.306 8.65666 14.3201 9.67198C15.3342 10.6873 16.5423 11.3498 18 11.4991C16.5428 11.6498 15.3374 12.3095 14.3206 13.3271C13.3037 14.3447 12.648 15.5453 12.4991 17C12.3493 15.543 11.6903 14.3388 10.673 13.3226C9.65574 12.3063 8.4531 11.6489 7 11.4995Z" fill="#C7D6A5"/>
<path d="M30 34.4995C32.5556 34.3584 35.2923 31.7377 35.4986 29C35.6489 30.4519 36.306 31.6567 37.3201 32.672C38.3342 33.6873 39.5423 34.3498 41 34.4991C39.5428 34.6498 38.3374 35.3095 37.3206 36.3271C36.3037 37.3447 35.648 38.5453 35.4991 40C35.3493 38.543 34.6903 37.3388 33.673 36.3226C32.6557 35.3063 31.4531 34.6489 30 34.4995Z" fill="#C7D6A5"/>
</svg>
