<svg width="48" height="48" viewBox="0 0 48 48" fill="none" xmlns="http://www.w3.org/2000/svg">
<path d="M24 2.5C24.4386 2.5 24.8593 2.67424 25.1694 2.9844C25.4796 3.29456 25.6538 3.71522 25.6538 4.15385V9.11538C25.6538 9.55401 25.4796 9.97467 25.1694 10.2848C24.8593 10.595 24.4386 10.7692 24 10.7692C23.5614 10.7692 23.1407 10.595 22.8306 10.2848C22.5204 9.97467 22.3462 9.55401 22.3462 9.11538V4.15385C22.3462 3.71522 22.5204 3.29456 22.8306 2.9844C23.1407 2.67424 23.5614 2.5 24 2.5ZM14.0769 24C14.0769 21.3682 15.1224 18.8443 16.9833 16.9833C18.8443 15.1224 21.3682 14.0769 24 14.0769C26.6318 14.0769 29.1557 15.1224 31.0167 16.9833C32.8776 18.8443 33.9231 21.3682 33.9231 24C33.9231 26.6318 32.8776 29.1557 31.0167 31.0167C29.1557 32.8776 26.6318 33.9231 24 33.9231C21.3682 33.9231 18.8443 32.8776 16.9833 31.0167C15.1224 29.1557 14.0769 26.6318 14.0769 24ZM39.2022 11.1353C39.4943 10.8218 39.6533 10.4071 39.6458 9.97864C39.6382 9.55018 39.4646 9.14139 39.1616 8.83837C38.8586 8.53536 38.4498 8.36179 38.0214 8.35423C37.5929 8.34667 37.1782 8.50571 36.8647 8.79785L33.3564 12.304C33.1983 12.4565 33.0723 12.6389 32.9855 12.8407C32.8987 13.0424 32.853 13.2594 32.851 13.479C32.849 13.6986 32.8907 13.9164 32.9738 14.1197C33.0568 14.323 33.1795 14.5077 33.3348 14.663C33.49 14.8184 33.6746 14.9413 33.8778 15.0245C34.081 15.1078 34.2987 15.1497 34.5183 15.1479C34.7379 15.1461 34.955 15.1006 35.1568 15.014C35.3586 14.9274 35.5412 14.8015 35.6938 14.6436L39.2022 11.1353ZM45.5 24C45.5 24.4386 45.3258 24.8593 45.0156 25.1694C44.7054 25.4796 44.2848 25.6538 43.8462 25.6538H38.8846C38.446 25.6538 38.0253 25.4796 37.7152 25.1694C37.405 24.8593 37.2308 24.4386 37.2308 24C37.2308 23.5614 37.405 23.1407 37.7152 22.8306C38.0253 22.5204 38.446 22.3462 38.8846 22.3462H43.8462C44.2848 22.3462 44.7054 22.5204 45.0156 22.8306C45.3258 23.1407 45.5 23.5614 45.5 24ZM36.8647 39.2022C37.1782 39.4943 37.5929 39.6533 38.0214 39.6458C38.4498 39.6382 38.8586 39.4646 39.1616 39.1616C39.4646 38.8586 39.6382 38.4498 39.6458 38.0214C39.6533 37.5929 39.4943 37.1782 39.2022 36.8647L35.696 33.3564C35.5435 33.1983 35.3611 33.0723 35.1593 32.9855C34.9576 32.8987 34.7406 32.853 34.521 32.851C34.3014 32.849 34.0836 32.8907 33.8803 32.9738C33.677 33.0568 33.4923 33.1795 33.337 33.3348C33.1816 33.49 33.0587 33.6746 32.9755 33.8778C32.8922 34.081 32.8503 34.2987 32.8521 34.5183C32.8539 34.7379 32.8994 34.955 32.986 35.1568C33.0726 35.3586 33.1985 35.5412 33.3564 35.6938L36.8647 39.2022ZM24 37.2308C24.4386 37.2308 24.8593 37.405 25.1694 37.7152C25.4796 38.0253 25.6538 38.446 25.6538 38.8846V43.8462C25.6538 44.2848 25.4796 44.7054 25.1694 45.0156C24.8593 45.3258 24.4386 45.5 24 45.5C23.5614 45.5 23.1407 45.3258 22.8306 45.0156C22.5204 44.7054 22.3462 44.2848 22.3462 43.8462V38.8846C22.3462 38.446 22.5204 38.0253 22.8306 37.7152C23.1407 37.405 23.5614 37.2308 24 37.2308ZM14.6458 35.6938C14.947 35.3817 15.1135 34.9639 15.1095 34.5303C15.1055 34.0966 14.9314 33.6819 14.6246 33.3754C14.3178 33.0689 13.9029 32.8952 13.4693 32.8916C13.0357 32.888 12.618 33.0549 12.3062 33.3564L8.79785 36.8625C8.49643 37.1743 8.32954 37.592 8.3331 38.0256C8.33666 38.4592 8.5104 38.8741 8.81689 39.1809C9.12338 39.4877 9.53811 39.6618 9.97174 39.6658C10.4054 39.6698 10.8232 39.5033 11.1353 39.2022L14.6436 35.696L14.6458 35.6938ZM10.7692 24C10.7692 24.4386 10.595 24.8593 10.2848 25.1694C9.97467 25.4796 9.55401 25.6538 9.11538 25.6538H4.15385C3.71522 25.6538 3.29456 25.4796 2.9844 25.1694C2.67424 24.8593 2.5 24.4386 2.5 24C2.5 23.5614 2.67424 23.1407 2.9844 22.8306C3.29456 22.5204 3.71522 22.3462 4.15385 22.3462H9.11538C9.55401 22.3462 9.97467 22.5204 10.2848 22.8306C10.595 23.1407 10.7692 23.5614 10.7692 24ZM12.3062 14.6436C12.6197 14.9358 13.0344 15.0948 13.4628 15.0873C13.8913 15.0797 14.3001 14.9061 14.6031 14.6031C14.9061 14.3001 15.0797 13.8913 15.0873 13.4628C15.0948 13.0344 14.9358 12.6197 14.6436 12.3062L11.1375 8.79785C10.8257 8.49643 10.408 8.32954 9.97439 8.3331C9.54075 8.33666 9.12586 8.5104 8.81908 8.81689C8.5123 9.12338 8.33817 9.53811 8.3342 9.97174C8.33022 10.4054 8.49673 10.8232 8.79785 11.1353L12.3062 14.6436Z" fill="#86A9C2"/>
<path d="M24 2.5C24.4386 2.5 24.8593 2.67424 25.1694 2.9844C25.4796 3.29456 25.6538 3.71522 25.6538 4.15385V9.11538C25.6538 9.55401 25.4796 9.97467 25.1694 10.2848C24.8593 10.595 24.4386 10.7692 24 10.7692C23.5614 10.7692 23.1407 10.595 22.8306 10.2848C22.5204 9.97467 22.3462 9.55401 22.3462 9.11538V4.15385C22.3462 3.71522 22.5204 3.29456 22.8306 2.9844C23.1407 2.67424 23.5614 2.5 24 2.5ZM39.2022 11.1353C39.4943 10.8218 39.6533 10.4071 39.6458 9.97864C39.6382 9.55018 39.4646 9.14139 39.1616 8.83837C38.8586 8.53536 38.4498 8.36179 38.0214 8.35423C37.5929 8.34667 37.1782 8.50571 36.8647 8.79785L33.3564 12.304C33.1983 12.4565 33.0723 12.6389 32.9855 12.8407C32.8987 13.0424 32.853 13.2594 32.851 13.479C32.849 13.6986 32.8907 13.9164 32.9738 14.1197C33.0568 14.323 33.1795 14.5077 33.3348 14.663C33.49 14.8184 33.6746 14.9413 33.8778 15.0245C34.081 15.1078 34.2987 15.1497 34.5183 15.1479C34.7379 15.1461 34.955 15.1006 35.1568 15.014C35.3586 14.9274 35.5412 14.8015 35.6938 14.6436L39.2022 11.1353ZM45.5 24C45.5 24.4386 45.3258 24.8593 45.0156 25.1694C44.7054 25.4796 44.2848 25.6538 43.8462 25.6538H38.8846C38.446 25.6538 38.0253 25.4796 37.7152 25.1694C37.405 24.8593 37.2308 24.4386 37.2308 24C37.2308 23.5614 37.405 23.1407 37.7152 22.8306C38.0253 22.5204 38.446 22.3462 38.8846 22.3462H43.8462C44.2848 22.3462 44.7054 22.5204 45.0156 22.8306C45.3258 23.1407 45.5 23.5614 45.5 24ZM36.8647 39.2022C37.1782 39.4943 37.5929 39.6533 38.0214 39.6458C38.4498 39.6382 38.8586 39.4646 39.1616 39.1616C39.4646 38.8586 39.6382 38.4498 39.6458 38.0214C39.6533 37.5929 39.4943 37.1782 39.2022 36.8647L35.696 33.3564C35.5435 33.1983 35.3611 33.0723 35.1593 32.9855C34.9576 32.8987 34.7406 32.853 34.521 32.851C34.3014 32.849 34.0836 32.8907 33.8803 32.9738C33.677 33.0568 33.4923 33.1795 33.337 33.3348C33.1816 33.49 33.0587 33.6746 32.9755 33.8778C32.8922 34.081 32.8503 34.2987 32.8521 34.5183C32.8539 34.7379 32.8994 34.955 32.986 35.1568C33.0726 35.3586 33.1985 35.5412 33.3564 35.6938L36.8647 39.2022ZM24 37.2308C24.4386 37.2308 24.8593 37.405 25.1694 37.7152C25.4796 38.0253 25.6538 38.446 25.6538 38.8846V43.8462C25.6538 44.2848 25.4796 44.7054 25.1694 45.0156C24.8593 45.3258 24.4386 45.5 24 45.5C23.5614 45.5 23.1407 45.3258 22.8306 45.0156C22.5204 44.7054 22.3462 44.2848 22.3462 43.8462V38.8846C22.3462 38.446 22.5204 38.0253 22.8306 37.7152C23.1407 37.405 23.5614 37.2308 24 37.2308ZM14.6458 35.6938C14.947 35.3817 15.1135 34.9639 15.1095 34.5303C15.1055 34.0966 14.9314 33.6819 14.6246 33.3754C14.3178 33.0689 13.9029 32.8952 13.4693 32.8916C13.0357 32.888 12.618 33.0549 12.3062 33.3564L8.79785 36.8625C8.49643 37.1743 8.32954 37.592 8.3331 38.0256C8.33666 38.4592 8.5104 38.8741 8.81689 39.1809C9.12338 39.4877 9.53811 39.6618 9.97174 39.6658C10.4054 39.6698 10.8232 39.5033 11.1353 39.2022L14.6436 35.696L14.6458 35.6938ZM10.7692 24C10.7692 24.4386 10.595 24.8593 10.2848 25.1694C9.97467 25.4796 9.55401 25.6538 9.11538 25.6538H4.15385C3.71522 25.6538 3.29456 25.4796 2.9844 25.1694C2.67424 24.8593 2.5 24.4386 2.5 24C2.5 23.5614 2.67424 23.1407 2.9844 22.8306C3.29456 22.5204 3.71522 22.3462 4.15385 22.3462H9.11538C9.55401 22.3462 9.97467 22.5204 10.2848 22.8306C10.595 23.1407 10.7692 23.5614 10.7692 24ZM12.3062 14.6436C12.6197 14.9358 13.0344 15.0948 13.4628 15.0873C13.8913 15.0797 14.3001 14.9061 14.6031 14.6031C14.9061 14.3001 15.0797 13.8913 15.0873 13.4628C15.0948 13.0344 14.9358 12.6197 14.6436 12.3062L11.1375 8.79785C10.8257 8.49643 10.408 8.32954 9.97439 8.3331C9.54075 8.33666 9.12586 8.5104 8.81908 8.81689C8.5123 9.12338 8.33817 9.53811 8.3342 9.97174C8.33022 10.4054 8.49673 10.8232 8.79785 11.1353L12.3062 14.6436Z" fill="#ADC9DB"/>
</svg>
