<svg width="48" height="48" viewBox="0 0 48 48" fill="none" xmlns="http://www.w3.org/2000/svg">
<path d="M19.5421 20.1807C20.7532 21.0332 21.9659 21.8704 23.1618 22.7383C23.4431 22.9447 23.7842 23.0498 24.131 23.0367C27.197 23.0264 30.2624 23.0264 33.3273 23.0367C36.1441 23.0367 38.3781 24.8747 38.9324 27.6404C39.0111 28.0734 39.0488 28.513 39.0449 28.9533C39.0567 30.6874 39.0449 32.4197 39.0601 34.1538C39.0744 34.3673 39.1673 34.5676 39.3204 34.7148C40.1233 35.4207 40.9581 36.0925 41.7677 36.7915C41.8976 36.9067 41.9798 37.0675 41.9978 37.2417C42.0113 40.0414 42.0062 42.8394 42.0062 45.6392C42.0062 45.692 41.9928 45.7466 41.9844 45.8216H36.7958C36.7958 45.6597 36.7774 45.5096 36.7774 45.3579C36.7774 44.0927 36.7774 42.8292 36.7656 41.5641C36.7593 41.4727 36.7346 41.3836 36.693 41.3024C36.6514 41.2212 36.5938 41.1495 36.5237 41.0917C34.0882 39.4276 32.7965 37.1206 32.6722 34.1401C32.6673 34.0994 32.66 34.059 32.6504 34.0191H19.4178V45.8182H14.1621V45.3203C14.1621 42.3382 14.1621 39.3526 14.1621 36.3704C14.156 36.0911 14.087 35.817 13.9605 35.569C12.4064 32.5972 11.5666 29.2943 11.5099 25.9302C11.5052 25.832 11.5209 25.7339 11.5559 25.6423C11.5909 25.5507 11.6445 25.4675 11.7131 25.3982C14.3032 23.6556 16.9151 21.925 19.5421 20.1807Z" fill="#F6844D"/>
<path d="M14.4695 9.7998C14.6257 10.1817 14.7668 10.533 14.9079 10.8825C15.8502 13.2031 16.7858 15.5272 17.7382 17.8427C17.8557 18.1308 17.8305 18.2775 17.5601 18.4548C15.3177 19.9263 13.0871 21.4165 10.8498 22.8999C10.7535 22.9826 10.6378 23.0384 10.5138 23.0619C9.36996 23.0704 8.21266 23.1813 7.11919 22.7107C5.47813 22.003 4.43337 20.7788 4.02017 19.0021C4.00127 18.9582 3.99172 18.9107 3.99214 18.8627C3.99256 18.8148 4.00293 18.7674 4.02259 18.7238C4.04224 18.6802 4.07074 18.6413 4.10621 18.6096C4.14168 18.578 4.18333 18.5543 4.22845 18.54C5.3236 17.9398 6.41204 17.3311 7.49208 16.702C7.57222 16.6473 7.64053 16.5766 7.69281 16.4943C7.74509 16.4119 7.78024 16.3195 7.7961 16.2228C7.86879 15.3661 8.20429 14.5541 8.75539 13.9011C9.30649 13.2481 10.0454 12.7869 10.8682 12.5825C11.1337 12.5092 11.3813 12.3809 11.5955 12.2057C12.4757 11.481 13.3357 10.7308 14.2024 9.98907C14.2746 9.93792 14.3536 9.88676 14.4695 9.7998Z" fill="#F6844D"/>
<path d="M44 2.18129C43.3634 3.28959 42.8242 4.32628 42.191 5.3084C39.7504 9.12437 36.5103 12.1185 32.7847 14.6028C29.8212 16.5675 26.644 18.1781 23.3164 19.4026C23.244 19.4331 23.1663 19.4488 23.0879 19.4488C23.0095 19.4488 22.9319 19.4331 22.8595 19.4026C22.07 18.8689 21.3007 18.3113 20.4609 17.7197C21.2252 17.4434 21.934 17.2081 22.6327 16.9336C27.6449 15.0103 32.264 12.4118 36.1844 8.64013C38.0651 6.85191 39.6648 4.78181 40.9279 2.50185C40.9682 2.39837 41.0408 2.31109 41.1344 2.25324C41.2281 2.19539 41.3378 2.17013 41.4469 2.18129C42.243 2.20175 43.0409 2.18129 44 2.18129Z" fill="#FFA978"/>
</svg>
