<svg width="463" height="218" viewBox="0 0 463 218" fill="none" xmlns="http://www.w3.org/2000/svg">
<path fill-rule="evenodd" clip-rule="evenodd" d="M153.89 202.636C43.4447 200.038 -47.1726 128.784 -79.8374 6.43126C-113.062 -118.016 -41.3011 -229.887 52.6717 -302.018C138.974 -368.261 242.199 -350.272 325.632 -280.255C415.329 -204.98 486.86 -85.3915 451.07 36.7765C414.762 160.712 266.409 205.283 153.89 202.636Z" fill="#FFA978"/>
<path opacity="0.5" fill-rule="evenodd" clip-rule="evenodd" d="M143.889 212.636C33.4442 210.038 -57.1731 138.784 -89.8379 16.4313C-123.062 -108.016 -51.3015 -219.887 42.6712 -292.018C128.974 -358.261 232.199 -340.272 315.631 -270.255C405.328 -194.98 476.859 -75.3915 441.069 46.7765C404.762 170.712 256.408 215.283 143.889 212.636Z" stroke="white" stroke-width="2"/>
</svg>
