<svg width="373" height="158" viewBox="0 0 373 158" fill="none" xmlns="http://www.w3.org/2000/svg">
<path fill-rule="evenodd" clip-rule="evenodd" d="M66.364 337.825C113.389 412.913 199.633 446.211 297.374 418.623C396.788 390.562 444.533 295.265 455.78 200.929C466.109 114.292 411.428 50.4858 328.981 21.6352C240.342 -9.3818 128.589 -9.7241 59.012 64.9883C-11.5721 140.782 18.4557 261.327 66.364 337.825Z" fill="#FFA978"/>
<path opacity="0.5" fill-rule="evenodd" clip-rule="evenodd" d="M53.5647 351.815C100.59 426.903 186.834 460.201 284.574 432.613C383.989 404.552 431.734 309.255 442.981 214.919C453.31 128.283 398.629 64.476 316.181 35.6254C227.543 4.60843 115.79 4.26613 46.2127 78.9785C-24.3714 154.772 5.65642 275.317 53.5647 351.815Z" stroke="white" stroke-width="2"/>
</svg>
