<svg width="74" height="60" viewBox="0 0 74 60" fill="none" xmlns="http://www.w3.org/2000/svg">
<g clip-path="url(#clip0_996_6409)">
<g clip-path="url(#clip1_996_6409)">
<path d="M26.3488 58.5055C24.8699 58.296 23.9893 56.9911 23.0262 55.8523C21.3836 53.9111 19.7961 51.9306 18.2244 49.9232C16.7078 48.103 15.8589 45.8037 15.8196 43.4098C15.7835 39.0687 17.7291 35.8497 21.4063 33.7318C22.5033 33.1004 23.8182 32.8125 25.0336 32.4633C27.5947 31.754 30.1516 30.9931 32.7508 30.4788C36.0074 29.8365 39.3026 32.0585 40.0535 35.303C40.5537 37.4564 40.1996 39.4799 38.7086 41.2486C37.3876 42.7292 36.3951 44.4786 35.7992 46.377C35.2346 48.2736 35.036 50.2594 35.2145 52.2248C35.487 55.062 32.974 58.349 30.1186 58.8294C28.5592 59.0694 27.9293 59.0274 26.3488 58.5055Z" fill="#FFE1C9"/>
<path d="M5.00105 46.2812C3.15914 45.4625 1.32162 44.0298 0.620333 41.4061C-0.353846 37.727 2.16235 34.366 6.02663 33.8765C7.29627 33.6749 8.59228 33.7988 9.79615 34.2367C11 34.6747 12.0734 35.4127 12.918 36.3834C15.8 39.6291 14.9574 44.0327 11.4802 45.905C9.61461 46.9069 7.46016 47.0841 5.00105 46.2812Z" fill="#FFE1C9"/>
<path d="M12.8345 34.417C10.6528 33.4009 8.89997 32.0533 8.22405 29.6097C7.13984 25.644 9.71639 22.2491 13.7743 22.3383C16.8116 22.4077 19.7848 24.8819 20.4331 27.8818C20.642 28.7651 20.6315 29.6894 20.4026 30.5722C20.1737 31.4549 19.7335 32.2688 19.1213 32.9412C18.509 33.6136 17.7437 34.1236 16.8936 34.4258C16.0434 34.728 15.1348 34.813 14.2488 34.6733C13.7576 34.5945 13.2707 34.492 12.8345 34.417Z" fill="#FFE1C9"/>
<path d="M13.9324 48.6919C16.5016 49.5344 17.8803 52.9241 16.0978 56.0319C15.1774 57.6479 13.6326 58.4436 11.8773 58.8519C9.62427 59.3725 6.75129 58.2442 5.45804 56.3317C3.97006 54.1227 4.59221 51.0673 6.89312 49.3495C8.81177 47.9178 10.8784 47.6545 13.9324 48.6919Z" fill="#FFE1C9"/>
<path d="M31.8144 26.9534C30.9519 30.1196 27.0981 31.0598 24.7026 29.7626C22.3569 28.496 21.0721 26.5898 20.933 23.9358C20.8276 21.8654 21.6389 20.1207 23.4897 19.1212C24.3096 18.6468 25.2413 18.4117 26.1804 18.4423C27.1196 18.4729 28.0292 18.7679 28.8074 19.2944C31.1076 20.7321 32.2536 22.7824 32.1196 25.5507C32.1182 25.7201 32.0994 25.889 32.0634 26.0547C32.0082 26.3622 31.9118 26.6562 31.8144 26.9534Z" fill="#FFE1C9"/>
</g>
<g clip-path="url(#clip2_996_6409)">
<path d="M51.6328 23.0148C51.1887 22.1571 51.546 21.204 51.7847 20.2697C52.1915 18.6765 52.6395 17.0976 53.1077 15.517C53.498 14.0355 54.3909 12.7262 55.6373 11.8079C57.9106 10.1612 60.3359 9.97915 62.8304 11.1222C63.5743 11.4633 64.219 12.0481 64.8587 12.5574C66.1927 13.6407 67.5522 14.7023 68.7977 15.8787C70.3571 17.3535 70.4221 19.9225 68.9944 21.5346C68.0476 22.6056 66.8489 23.1778 65.3581 23.0555C64.0828 22.9147 62.7891 23.0478 61.5656 23.4457C60.3547 23.8594 59.2342 24.4993 58.2657 25.3303C56.8732 26.5377 54.1994 26.4463 52.8757 25.1222C52.1646 24.3906 51.9505 24.0431 51.6328 23.0148Z" fill="#FFE1C9"/>
<path d="M50.0686 7.18567C49.8092 5.90838 49.875 4.40319 50.9942 3.05002C52.5671 1.15732 55.2811 1.22263 56.9879 3.07479C57.5701 3.66807 57.9908 4.39725 58.2115 5.19565C58.4322 5.99405 58.4458 6.83621 58.2512 7.64512C57.6219 10.3804 54.9862 11.5876 52.6961 10.4579C51.4688 9.85068 50.5677 8.78217 50.0686 7.18567Z" fill="#FFE1C9"/>
<path d="M59.256 6.86366C58.9732 5.33339 59.0259 3.90468 60.0598 2.63239C61.7424 0.574281 64.4969 0.658687 65.9714 2.82982C67.0737 4.4559 66.8851 6.94991 65.5478 8.41619C65.1608 8.85746 64.67 9.19849 64.1191 9.40891C63.5683 9.61933 62.9745 9.69259 62.3907 9.62217C61.8069 9.55174 61.2513 9.33981 60.7733 9.00527C60.2953 8.67073 59.9099 8.22398 59.6513 7.70483C59.5086 7.41652 59.38 7.12157 59.256 6.86366Z" fill="#FFE1C9"/>
<path d="M52.1475 12.7946C52.667 14.4639 51.3983 16.4611 49.0927 16.6874C47.8964 16.8085 46.8979 16.2931 46.0247 15.5214C44.9057 14.5297 44.4228 12.5932 44.9454 11.1948C45.5512 9.58271 47.3941 8.76481 49.1617 9.33284C50.6353 9.80678 51.5489 10.7967 52.1475 12.7946Z" fill="#FFE1C9"/>
<path d="M70.3045 14.0637C68.3131 14.7965 66.3728 13.1188 66.158 11.3705C65.9457 9.65986 66.4682 8.26831 67.8141 7.19992C68.8653 6.36811 70.0886 6.14134 71.3091 6.74156C71.8665 6.99562 72.3396 7.39828 72.6756 7.90448C73.0117 8.41069 73.1973 9.00048 73.2118 9.60785C73.3168 11.3586 72.6664 12.7312 71.1578 13.6985C71.0681 13.7613 70.9721 13.8147 70.8713 13.8579C70.6886 13.9441 70.4976 14.0036 70.3045 14.0637Z" fill="#FFE1C9"/>
</g>
</g>
<defs>
<clipPath id="clip0_996_6409">
<rect width="74" height="60" fill="white" transform="matrix(-1 0 0 1 74 0)"/>
</clipPath>
<clipPath id="clip1_996_6409">
<rect width="44.1972" height="38.101" fill="white" transform="translate(-5 54.4795) rotate(-71.8433)"/>
</clipPath>
<clipPath id="clip2_996_6409">
<rect width="28.5784" height="24.6365" fill="white" transform="translate(42 4.99121) rotate(-17.2848)"/>
</clipPath>
</defs>
</svg>
