<svg width="48" height="48" viewBox="0 0 48 48" fill="none" xmlns="http://www.w3.org/2000/svg">
<path d="M13.3434 25.0049C14.3504 25.4129 15.5919 25.465 16.3602 24.6967L24.6943 16.3626C25.4626 15.5943 25.4105 14.3528 25.0025 13.3458C24.2819 11.5748 24.6466 9.4652 26.0833 8.02843C28.0019 6.10985 31.1098 6.10984 33.0284 8.02843C34.348 9.348 34.7604 11.2362 34.2612 12.9074C34.1874 13.1461 34.2395 13.4066 34.4175 13.5845C34.5954 13.7625 34.8559 13.8146 35.0946 13.7408C36.7658 13.2416 38.654 13.654 39.9736 14.9735C41.8921 16.8921 41.8921 20.0001 39.9736 21.9187C38.5368 23.3554 36.4272 23.7201 34.6562 22.9995C33.6492 22.5915 32.4077 22.5394 31.6394 23.3077L23.3053 31.6418C22.537 32.4101 22.5891 33.6516 22.9971 34.6586C23.7176 36.4296 23.353 38.5392 21.9163 39.976C19.9977 41.8945 16.8897 41.8945 14.9711 39.976C13.6516 38.6564 13.2392 36.7682 13.7384 35.097C13.8122 34.8583 13.7601 34.5978 13.5821 34.4199C13.4041 34.2419 13.1437 34.1898 12.905 34.2636C11.2338 34.7628 9.3456 34.3504 8.02602 33.0308C6.10744 31.1123 6.10744 28.0043 8.02602 26.0857C9.46279 24.649 11.5724 24.2843 13.3434 25.0049Z" fill="#F6844D"/>
<path d="M7 11.4995C9.55556 11.3584 12.2923 8.73771 12.4986 6C12.6489 7.45195 13.306 8.65666 14.3201 9.67198C15.3342 10.6873 16.5423 11.3498 18 11.4991C16.5428 11.6498 15.3374 12.3095 14.3206 13.3271C13.3037 14.3447 12.648 15.5453 12.4991 17C12.3493 15.543 11.6903 14.3388 10.673 13.3226C9.65574 12.3063 8.4531 11.6489 7 11.4995Z" fill="#FFA978"/>
<path d="M30 34.4995C32.5556 34.3584 35.2923 31.7377 35.4986 29C35.6489 30.4519 36.306 31.6567 37.3201 32.672C38.3342 33.6873 39.5423 34.3498 41 34.4991C39.5428 34.6498 38.3374 35.3095 37.3206 36.3271C36.3037 37.3447 35.648 38.5453 35.4991 40C35.3493 38.543 34.6903 37.3388 33.673 36.3226C32.6557 35.3063 31.4531 34.6489 30 34.4995Z" fill="#FFA978"/>
</svg>
