<svg width="48" height="48" viewBox="0 0 48 48" fill="none" xmlns="http://www.w3.org/2000/svg">
<path d="M19.5421 20.1805C20.7531 21.0331 21.9659 21.8703 23.1618 22.7382C23.443 22.9446 23.7842 23.0496 24.131 23.0365C27.197 23.0263 30.2624 23.0263 33.3273 23.0365C36.1441 23.0365 38.3781 24.8746 38.9324 27.6403C39.0111 28.0732 39.0488 28.5129 39.0449 28.9532C39.0567 30.6872 39.0449 32.4196 39.06 34.1537C39.0744 34.3672 39.1673 34.5674 39.3204 34.7146C40.1233 35.4205 40.9581 36.0923 41.7677 36.7914C41.8976 36.9066 41.9798 37.0674 41.9978 37.2416C42.0112 40.0413 42.0062 42.8393 42.0062 45.6391C42.0062 45.6919 41.9928 45.7465 41.9844 45.8215H36.7958C36.7958 45.6595 36.7773 45.5095 36.7773 45.3577C36.7773 44.0926 36.7773 42.8291 36.7656 41.5639C36.7593 41.4726 36.7346 41.3835 36.693 41.3023C36.6513 41.221 36.5937 41.1493 36.5237 41.0916C34.0882 39.4275 32.7965 37.1205 32.6722 34.14C32.6673 34.0993 32.66 34.0588 32.6503 34.019H19.4178V45.8181H14.1621V45.3202C14.1621 42.338 14.1621 39.3524 14.1621 36.3703C14.156 36.091 14.087 35.8169 13.9605 35.5689C12.4063 32.597 11.5666 29.2942 11.5098 25.9301C11.5052 25.8319 11.5208 25.7338 11.5559 25.6422C11.5909 25.5505 11.6444 25.4674 11.7131 25.3981C14.3032 23.6555 16.9151 21.9248 19.5421 20.1805Z" fill="#F6844D"/>
<path d="M14.4695 9.80005C14.6258 10.182 14.7669 10.5332 14.9079 10.8828C15.8502 13.2034 16.7858 15.5274 17.7382 17.8429C17.8558 18.1311 17.8306 18.2777 17.5602 18.455C15.3178 19.9265 13.0872 21.4167 10.8498 22.9002C10.7536 22.9829 10.6378 23.0387 10.5139 23.0621C9.37002 23.0707 8.21272 23.1815 7.11925 22.7109C5.4782 22.0033 4.43343 20.779 4.02023 19.0024C4.00133 18.9584 3.99178 18.9109 3.9922 18.863C3.99262 18.815 4.00299 18.7677 4.02265 18.7241C4.0423 18.6805 4.0708 18.6416 4.10627 18.6099C4.14174 18.5782 4.1834 18.5545 4.22851 18.5403C5.32366 17.9401 6.4121 17.3314 7.49214 16.7022C7.57228 16.6476 7.64059 16.5769 7.69287 16.4945C7.74515 16.4121 7.7803 16.3197 7.79616 16.2231C7.86885 15.3664 8.20435 14.5544 8.75545 13.9013C9.30655 13.2483 10.0455 12.7871 10.8683 12.5827C11.1338 12.5094 11.3814 12.3811 11.5956 12.2059C12.4758 11.4813 13.3358 10.731 14.2025 9.98931C14.2747 9.93816 14.3536 9.88701 14.4695 9.80005Z" fill="#F6844D"/>
<path d="M44 2.18178C43.3634 3.29008 42.8243 4.32677 42.191 5.30889C39.7504 9.12486 36.5103 12.119 32.7848 14.6033C29.8212 16.568 26.6441 18.1786 23.3164 19.4031C23.244 19.4336 23.1664 19.4492 23.088 19.4492C23.0096 19.4492 22.9319 19.4336 22.8595 19.4031C22.0701 18.8694 21.3008 18.3118 20.4609 17.7202C21.2252 17.4439 21.934 17.2086 22.6328 16.9341C27.6449 15.0108 32.2641 12.4122 36.1845 8.64062C38.0651 6.8524 39.6648 4.78229 40.9279 2.50233C40.9683 2.39886 41.0408 2.31158 41.1345 2.25373C41.2281 2.19588 41.3378 2.17062 41.4469 2.18178C42.2431 2.20224 43.0409 2.18178 44 2.18178Z" fill="#FFA978"/>
</svg>
