<svg width="48" height="48" viewBox="0 0 48 48" fill="none" xmlns="http://www.w3.org/2000/svg">
<path d="M22.9914 8.46682C23.259 8.19953 23.6217 8.0494 24 8.0494C24.3782 8.0494 24.741 8.19953 25.0086 8.46682L41.5461 25.0043C41.6778 25.1405 41.8353 25.2492 42.0095 25.3239C42.1837 25.3986 42.371 25.4379 42.5605 25.4395C42.75 25.441 42.9379 25.4048 43.1133 25.333C43.2887 25.2611 43.448 25.1551 43.5819 25.021C43.7159 24.8869 43.8218 24.7275 43.8935 24.5521C43.9652 24.3766 44.0012 24.1887 43.9995 23.9992C43.9977 23.8097 43.9583 23.6224 43.8834 23.4483C43.8085 23.2742 43.6997 23.1168 43.5633 22.9852L27.0277 6.44769C26.6301 6.05007 26.1581 5.73467 25.6386 5.51948C25.1191 5.3043 24.5623 5.19354 24 5.19354C23.4377 5.19354 22.8809 5.3043 22.3614 5.51948C21.8419 5.73467 21.3698 6.05007 20.9722 6.44769L4.43475 22.9852C4.2985 23.1169 4.18984 23.2744 4.11512 23.4486C4.0404 23.6228 4.00112 23.8101 3.99956 23.9996C3.998 24.1891 4.0342 24.377 4.10605 24.5524C4.1779 24.7278 4.28396 24.8871 4.41803 25.021C4.5521 25.155 4.71151 25.2609 4.88695 25.3326C5.06239 25.4042 5.25035 25.4403 5.43987 25.4385C5.62938 25.4368 5.81665 25.3973 5.99075 25.3225C6.16485 25.2476 6.32229 25.1388 6.45389 25.0024L22.9914 8.46682Z" fill="#FFA978"/>
<path d="M23.9999 11.4946L39.5269 27.0215C39.584 27.0786 39.6411 27.1319 39.7001 27.1852V38.9803C39.7001 40.9499 38.1015 42.5485 36.1319 42.5485H29.7091C29.3305 42.5485 28.9675 42.3981 28.6998 42.1304C28.4322 41.8628 28.2818 41.4997 28.2818 41.1212V32.5575C28.2818 32.1789 28.1314 31.8159 27.8638 31.5482C27.5961 31.2806 27.233 31.1302 26.8545 31.1302H21.1454C20.7668 31.1302 20.4038 31.2806 20.1361 31.5482C19.8685 31.8159 19.7181 32.1789 19.7181 32.5575V41.1212C19.7181 41.4997 19.5677 41.8628 19.3 42.1304C19.0324 42.3981 18.6693 42.5485 18.2908 42.5485H11.868C10.9217 42.5485 10.0141 42.1725 9.34491 41.5034C8.67574 40.8342 8.2998 39.9266 8.2998 38.9803V27.1852C8.35901 27.1322 8.41676 27.0776 8.47298 27.0215L23.9999 11.4946Z" fill="#F6844D"/>
</svg>
