<svg width="16" height="17" viewBox="0 0 16 17" fill="none" xmlns="http://www.w3.org/2000/svg">
<path fill-rule="evenodd" clip-rule="evenodd" d="M4.9999 4.5C4.9999 3.70435 5.31597 2.94129 5.87858 2.37868C6.44119 1.81607 7.20425 1.5 7.9999 1.5C8.79555 1.5 9.55861 1.81607 10.1212 2.37868C10.6838 2.94129 10.9999 3.70435 10.9999 4.5C10.9999 5.29565 10.6838 6.05871 10.1212 6.62132C9.55861 7.18393 8.79555 7.5 7.9999 7.5C7.20425 7.5 6.44119 7.18393 5.87858 6.62132C5.31597 6.05871 4.9999 5.29565 4.9999 4.5ZM2.50057 13.9033C2.52305 12.4596 3.11233 11.0827 4.14121 10.0697C5.17009 9.05674 6.55604 8.48897 7.9999 8.48897C9.44376 8.48897 10.8297 9.05674 11.8586 10.0697C12.8875 11.0827 13.4768 12.4596 13.4992 13.9033C13.501 14.0005 13.4743 14.0961 13.4226 14.1784C13.3709 14.2607 13.2962 14.3261 13.2079 14.3667C11.574 15.1158 9.79734 15.5024 7.9999 15.5C6.14257 15.5 4.3779 15.0947 2.7919 14.3667C2.70356 14.3261 2.62895 14.2607 2.57721 14.1784C2.52547 14.0961 2.49883 14.0005 2.50057 13.9033Z" fill="#9E9E9E"/>
</svg>
